<svg width="108" height="108" viewBox="0 0 108 108" fill="none" xmlns="http://www.w3.org/2000/svg">
<g filter="url(#filter0_d_3_72)">
<circle cx="54" cy="50" r="50" fill="#FF7500" fill-opacity="0.2" shape-rendering="crispEdges"/>
</g>
<path d="M44.6809 27.3522C44.2807 25.8585 42.7453 24.9721 41.2516 25.3723C39.7579 25.7726 38.8715 27.3079 39.2717 28.8016L39.9964 31.5062C40.3967 32.9999 41.932 33.8864 43.4257 33.4861C44.9194 33.0859 45.8058 31.5505 45.4056 30.0568L44.6809 27.3522Z" fill="#FF7500"/>
<path d="M32.8015 35.2718C31.3078 34.8716 29.7725 35.758 29.3722 37.2517C28.972 38.7454 29.8584 40.2808 31.3521 40.681L34.0567 41.4057C35.5504 41.806 37.0858 40.9195 37.486 39.4258C37.8862 37.9321 36.9998 36.3968 35.5061 35.9965L32.8015 35.2718Z" fill="#FF7500"/>
<path d="M57.4792 33.6803C58.5726 32.5868 58.5726 30.814 57.4792 29.7205C56.3857 28.627 54.6128 28.627 53.5194 29.7205L51.5395 31.7004C50.446 32.7939 50.446 34.5667 51.5395 35.6602C52.6329 36.7537 54.4058 36.7537 55.4993 35.6602L57.4792 33.6803Z" fill="#FF7500"/>
<path d="M37.6802 53.4793L39.6601 51.4994C40.7536 50.4059 40.7536 48.6331 39.6601 47.5396C38.5666 46.4461 36.7938 46.4461 35.7003 47.5396L33.7204 49.5195C32.6269 50.613 32.6269 52.3858 33.7204 53.4793C34.8139 54.5728 36.5867 54.5728 37.6802 53.4793Z" fill="#FF7500"/>
<path d="M46.64 39.0004C45.6 38.5844 44.4122 38.8282 43.6202 39.6202C42.8282 40.4122 42.5844 41.6 43.0003 42.64L54.2003 70.64C54.6098 71.6638 55.582 72.3519 56.6837 72.3977C57.7854 72.4435 58.8114 71.8385 59.3045 70.8523L63.1671 63.127L71.6202 71.58C72.7136 72.6735 74.4865 72.6735 75.58 71.58C76.6735 70.4865 76.6735 68.7137 75.58 67.6202L67.1269 59.1672L74.8523 55.3045C75.8385 54.8114 76.4435 53.7854 76.3977 52.6837C76.3518 51.5821 75.6637 50.6099 74.64 50.2004L46.64 39.0004Z" fill="#FF7500"/>
<defs>
<filter id="filter0_d_3_72" x="0" y="0" width="108" height="108" filterUnits="userSpaceOnUse" color-interpolation-filters="sRGB">
<feFlood flood-opacity="0" result="BackgroundImageFix"/>
<feColorMatrix in="SourceAlpha" type="matrix" values="0 0 0 0 0 0 0 0 0 0 0 0 0 0 0 0 0 0 127 0" result="hardAlpha"/>
<feOffset dy="4"/>
<feGaussianBlur stdDeviation="2"/>
<feComposite in2="hardAlpha" operator="out"/>
<feColorMatrix type="matrix" values="0 0 0 0 0 0 0 0 0 0 0 0 0 0 0 0 0 0 0.25 0"/>
<feBlend mode="normal" in2="BackgroundImageFix" result="effect1_dropShadow_3_72"/>
<feBlend mode="normal" in="SourceGraphic" in2="effect1_dropShadow_3_72" result="shape"/>
</filter>
</defs>
</svg>
